<?xml version="1.0" standalone="no"?><!DOCTYPE svg PUBLIC "-//W3C//DTD SVG 1.1//EN" "http://www.w3.org/Graphics/SVG/1.1/DTD/svg11.dtd"><svg width="200" height="200" viewBox="0 0 200 200" version="1.1" xmlns="http://www.w3.org/2000/svg" xmlns:xlink="http://www.w3.org/1999/xlink"><defs><style type="text/css"><![CDATA[
@font-face { font-family: ifont; src: url("//at.alicdn.com/t/font_1442373896_4754455.eot?#iefix") format("embedded-opentype"), url("//at.alicdn.com/t/font_1442373896_4754455.woff") format("woff"), url("//at.alicdn.com/t/font_1442373896_4754455.ttf") format("truetype"), url("//at.alicdn.com/t/font_1442373896_4754455.svg#ifont") format("svg"); }

]]></style></defs><g class="transform-group"><g transform="scale(0.1953125, 0.1953125)"><path d="M818.607608 223.781716 697.396989 223.781716l0-42.692335c0-11.781324-9.581216-21.341051-21.386076-21.341051-11.819187 0-21.400403 9.555633-21.400403 21.341051l0 42.692335L383.653355 223.781716l0-42.692335c0-11.781324-9.592472-21.341051-21.397333-21.341051s-21.397333 9.555633-21.397333 21.341051l0 42.692335L205.392392 223.781716c-35.394115 0-64.182788 28.735461-64.182788 64.056921l0 512.357134c0 35.31532 28.788673 64.055898 64.182788 64.055898L818.607608 864.251669c35.398208 0 64.181765-28.740578 64.181765-64.055898L882.789373 287.838637C882.789373 252.517177 854.005816 223.781716 818.607608 223.781716L818.607608 223.781716zM840.002894 800.195771c0 11.772115-9.592472 21.37175-21.395286 21.37175L205.392392 821.567521c-11.802814 0-21.396309-9.599635-21.396309-21.37175L183.996083 287.838637c0-11.781324 9.589402-21.341051 21.396309-21.341051l135.466298 0 0 56.917314c0 11.790534 9.588379 21.350261 21.397333 21.350261 11.80486 0 21.397333-9.559727 21.397333-21.350261l0-56.917314 270.956132 0 0 56.921407c0 11.787464 9.581216 21.346167 21.400403 21.346167 11.80486 0 21.386076-9.559727 21.386076-21.346167l0-56.921407 121.210619 0c11.802814 0 21.395286 9.559727 21.395286 21.345144L840.001871 800.195771 840.002894 800.195771zM312.337099 526.084787l71.316256 0 0-70.449515L312.337099 455.635271 312.337099 526.084787 312.337099 526.084787zM483.483015 526.084787l71.300906 0 0-70.449515-71.300906 0L483.483015 526.084787 483.483015 526.084787zM654.609487 526.084787l71.295789 0 0-70.449515-71.295789 0L654.609487 526.084787 654.609487 526.084787zM312.337099 695.169763l71.316256 0 0-70.450539L312.337099 624.719224 312.337099 695.169763 312.337099 695.169763zM483.483015 695.169763l71.300906 0 0-70.450539-71.300906 0L483.483015 695.169763 483.483015 695.169763zM654.609487 695.169763l71.295789 0 0-70.450539-71.295789 0L654.609487 695.169763 654.609487 695.169763zM654.609487 695.169763" fill="#eb4f38"></path></g></g></svg>