<?xml version="1.0" encoding="iso-8859-1"?>
<!-- Generator: Adobe Illustrator 18.0.0, SVG Export Plug-In . SVG Version: 6.00 Build 0)  -->
<!DOCTYPE svg PUBLIC "-//W3C//DTD SVG 1.1//EN" "http://www.w3.org/Graphics/SVG/1.1/DTD/svg11.dtd">
<svg version="1.1" id="Capa_1" xmlns="http://www.w3.org/2000/svg" xmlns:xlink="http://www.w3.org/1999/xlink" x="0px" y="0px"
	 viewBox="0 0 435.12 435.12" style="enable-background:new 0 0 435.12 435.12;" xml:space="preserve">
<g>
	<circle cx="170.158" cy="210.991" r="10.02"/>
	<circle cx="263.414" cy="210.991" r="10.02"/>
	<path d="M232.145,233.875c-8.469,8.469-22.249,8.471-30.717,0c-2.929-2.928-7.678-2.928-10.606,0c-2.929,2.93-2.929,7.678,0,10.607
		c7.159,7.159,16.561,10.737,25.965,10.737c9.402,0,18.808-3.58,25.965-10.737c2.929-2.929,2.929-7.678,0-10.606
		C239.823,230.946,235.074,230.947,232.145,233.875z"/>
	<path d="M299.706,99.898V89.395l90.768-30.772L217.56,0L44.647,58.622l89.22,30.248v11.028
		c-27.891,14.23-45.814,43.344-45.814,74.73l0,260.492h15V329.689c0-26.734,20.852-48.675,47.144-50.448
		c8.414,6.741,17.772,12.09,27.77,15.937l31.312,54.231v85.71h15v-85.707l31.311-54.229c10.004-3.848,19.367-9.198,27.786-15.942
		c26.291,1.774,47.143,23.715,47.143,50.448V435.12h15V174.628C345.519,143.242,327.596,114.128,299.706,99.898z M217.56,15.838
		l126.196,42.784L217.56,101.406L91.365,58.622L217.56,15.838z M217.56,117.244l67.146-22.764v15.674
		c0,2.978-1.553,5.712-4.155,7.313c-19.168,11.805-41.218,18.044-63.764,18.044c-1.809,0-4.14-0.063-5.416-0.135
		c-4.745-0.26-10.668-0.94-10.668-0.94c-16.86-2.244-33.104-7.992-47.68-16.969c-2.602-1.602-4.155-4.336-4.155-7.313V93.956
		L217.56,117.244z M216.783,287.318c-24.201,0-46.84-9.08-63.749-25.568c-15.653-15.264-24.818-35.406-26.144-57.206
		c33.494-1.994,54.646-16.845,66.729-29.442c5.501-5.736,9.628-11.487,12.628-16.408c3.514,5.063,8.482,11.004,15.333,16.899
		c25.444,21.894,59.031,28.079,85.1,29.031c-1.344,21.77-10.506,41.882-26.14,57.126
		C263.632,278.238,240.989,287.318,216.783,287.318z M103.053,287.993V174.628c0-23.489,12.227-45.427,31.732-57.979
		c1.597,5.575,5.224,10.422,10.372,13.592c15.219,9.371,32.056,15.604,49.56,18.464c-8.059,14.182-29.415,41.064-75.493,41.064h-7.5
		v9.25c0,25.123,8.831,48.715,25.022,67.309C123.356,269.899,111.635,277.601,103.053,287.993z M216.781,332.403l-18.246-31.602
		c5.962,1.003,12.062,1.517,18.248,1.517c6.184,0,12.282-0.513,18.243-1.515L216.781,332.403z M330.519,287.993
		c-8.582-10.391-20.302-18.093-33.69-21.665c16.192-18.593,25.024-42.188,25.024-67.32l-0.013-9.244h-7.489
		c-34.418,0-62.862-8.617-82.257-24.921c-6.008-5.05-10.303-10.132-13.282-14.366c24.618-0.364,48.644-7.329,69.604-20.235
		c5.148-3.17,8.775-8.017,10.372-13.592c19.504,12.552,31.732,34.489,31.732,57.979V287.993z"/>
	<rect x="263.783" y="346.964" width="38" height="15"/>
</g>
<g>
</g>
<g>
</g>
<g>
</g>
<g>
</g>
<g>
</g>
<g>
</g>
<g>
</g>
<g>
</g>
<g>
</g>
<g>
</g>
<g>
</g>
<g>
</g>
<g>
</g>
<g>
</g>
<g>
</g>
</svg>
